<svg width="18" height="19" viewBox="0 0 18 19" fill="none" xmlns="http://www.w3.org/2000/svg">
<path fill-rule="evenodd" clip-rule="evenodd" d="M9.02709 1.53125H8.97359C6.44674 1.53125 4.12991 3.36467 3.90514 5.79197C3.89015 5.96561 3.87993 6.14304 3.87333 6.33418L3.86409 6.78106L3.86227 7.18171L3.87355 7.13604C3.76927 7.64454 3.52893 8.1162 3.1774 8.50159L3.12702 8.5664C2.82603 9.02364 2.65308 9.55289 2.62631 10.0994L2.62568 10.2781C2.61031 10.9968 2.85661 11.7081 3.31997 12.273C3.94833 12.9364 4.76172 13.3322 5.63472 13.4162C7.8675 13.6587 10.1265 13.6587 12.3655 13.4155C13.2325 13.3357 14.0483 12.9388 14.6504 12.2999C15.1049 11.7561 15.353 11.1035 15.3743 10.4278L15.375 10.1253C15.3501 9.55476 15.1761 9.02501 14.8715 8.56975L14.8252 8.51034L14.7122 8.37741C14.4582 8.06018 14.2727 7.69477 14.1672 7.30391L14.1338 7.16358L14.1268 7.0164C14.1248 6.9502 14.1237 6.8768 14.1234 6.78512L14.1233 6.2803C14.1216 6.08718 14.1159 5.94986 14.1025 5.79527C13.8701 3.36339 11.5526 1.53125 9.02709 1.53125ZM8.97359 2.57776H9.02709C11.0502 2.57776 12.8958 4.03681 13.0731 5.8912C13.0835 6.01294 13.0882 6.12908 13.0896 6.30162L13.0916 6.9801C13.0939 7.08861 13.0981 7.17885 13.1054 7.28038L13.1151 7.34988L13.1638 7.55672C13.308 8.10388 13.567 8.61432 13.9235 9.05439L14.0269 9.17567L14.0155 9.15664C14.2133 9.45219 14.3259 9.79517 14.3417 10.1489L14.3412 10.2714C14.3531 10.7635 14.19 11.231 13.8813 11.6012C13.4734 12.0327 12.8903 12.3164 12.2635 12.3742C10.0895 12.6102 7.90446 12.6102 5.73876 12.375C5.10512 12.314 4.52161 12.0301 4.09027 11.576C3.81065 11.233 3.64926 10.7669 3.6594 10.2893L3.65951 10.1253L3.67262 9.98243C3.70417 9.74338 3.78404 9.50112 3.90783 9.27806L3.97062 9.17416C4.43085 8.65653 4.74669 8.0271 4.8858 7.34875L4.89659 7.2424L4.90149 6.55294L4.91353 6.20315C4.91899 6.0928 4.92599 5.98796 4.93476 5.88633C5.10603 4.0369 6.94989 2.57776 8.97359 2.57776ZM3.97062 9.17416C3.95948 9.18668 3.94827 9.19913 3.93697 9.21152L3.97392 9.16869L3.97062 9.17416ZM10.956 14.7992C10.7335 14.6181 10.4081 14.6537 10.2292 14.8789C10.1516 14.9765 10.0618 15.064 9.96192 15.1394C9.62306 15.4052 9.20018 15.5236 8.7798 15.4735C8.36002 15.4235 7.97844 15.2098 7.71953 14.8809C7.54164 14.6548 7.21642 14.6176 6.99313 14.7977C6.76985 14.9777 6.73305 15.3069 6.91094 15.533C7.34025 16.0784 7.96933 16.4307 8.65898 16.5128C9.34801 16.5949 10.0418 16.4007 10.5875 15.9725C10.7495 15.8504 10.9024 15.7014 11.0347 15.5349C11.2137 15.3097 11.1784 14.9804 10.956 14.7992Z" fill="#12131A"/>
</svg>
